<?xml version="1.0" encoding="utf-8"?>
<!-- Generator: Adobe Illustrator 23.0.5, SVG Export Plug-In . SVG Version: 6.00 Build 0)  -->
<svg version="1.1" id="Layer_1" xmlns="http://www.w3.org/2000/svg" xmlns:xlink="http://www.w3.org/1999/xlink" x="0px" y="0px"
	 viewBox="0 0 1000 1000" style="enable-background:new 0 0 1000 1000;" xml:space="preserve">
<style type="text/css">
	.st0{fill:#272729;}
	.st1{fill:#60C3AF;}
</style>
<g>
	<g>
		<g>
			<path class="st0" d="M252.3,508.75v-56.23c0-5.74,3.27-10.96,8.41-13.52c15.55-7.75,26.07-24.04,25.36-42.75
				c-0.91-23.65-19.93-42.84-43.57-43.95c-26.29-1.23-47.99,19.72-47.99,45.74c0,17.91,10.3,33.38,25.28,40.9
				c5.22,2.62,8.51,7.95,8.51,13.79l0,62.38c0,4.68-2.66,9.01-6.92,10.95c-0.05,0.02-0.1,0.04-0.15,0.07
				c-4.82,2.21-10.5,1.19-14.11-2.69l-87.19-93.47c-4.85-5.2-6.65-12.54-4.77-19.39c1.14-4.17,1.71-8.58,1.61-13.13
				c-0.53-24-19.73-43.67-43.71-44.72c-26.23-1.16-47.87,19.77-47.87,45.75c0,17.91,10.3,33.38,25.28,40.9
				c5.22,2.62,8.51,7.95,8.51,13.79l0,63.25c0,5.74-3.27,10.96-8.41,13.52c-15.55,7.75-26.07,24.04-25.36,42.75
				c0.91,23.65,19.93,42.84,43.57,43.95c26.29,1.23,47.99-19.72,47.99-45.74c0-17.91-10.3-33.38-25.28-40.9
				c-5.22-2.62-8.51-7.95-8.51-13.79l0-67.44c0-3.44,2.03-6.59,5.22-7.89c0.32-0.13,0.64-0.26,0.95-0.4
				c3.32-1.44,7.18-0.6,9.65,2.04l90.32,96.83c5.07,5.44,7.44,12.94,6.11,20.25c-0.75,4.13-0.94,8.45-0.49,12.89
				c2.26,22.03,20.35,39.49,42.46,40.94c26.69,1.76,48.89-19.38,48.89-45.69c0-16.88-9.14-31.59-22.73-39.52
				C256.47,524.19,252.3,516.74,252.3,508.75z"/>
		</g>
		<g>
			<circle class="st1" cx="155.86" cy="483.33" r="45.8"/>
		</g>
	</g>
	<g>
		<path class="st0" d="M400.52,480.07c-7.87,0-14.93-1.84-21.18-5.52c-6.25-3.68-11.22-8.67-14.9-14.98
			c-3.68-6.3-5.57-13.39-5.67-21.26v-70.65c0-2.02,0.61-3.6,1.82-4.77c1.21-1.16,2.77-1.74,4.69-1.74c1.92,0,3.45,0.58,4.61,1.74
			c1.16,1.16,1.74,2.75,1.74,4.77v43.27c3.43-4.54,7.81-8.19,13.16-10.97c5.34-2.77,11.25-4.16,17.7-4.16
			c7.66,0,14.52,1.84,20.58,5.52c6.05,3.68,10.82,8.7,14.3,15.05c3.48,6.35,5.22,13.52,5.22,21.48c0,8.07-1.84,15.28-5.52,21.63
			c-3.68,6.35-8.68,11.37-14.98,15.05C415.78,478.23,408.59,480.07,400.52,480.07z M400.52,468.42c5.65,0,10.69-1.34,15.13-4.01
			c4.44-2.67,7.94-6.3,10.51-10.89c2.57-4.59,3.86-9.81,3.86-15.66c0-5.75-1.29-10.94-3.86-15.58c-2.57-4.64-6.08-8.27-10.51-10.89
			c-4.44-2.62-9.48-3.93-15.13-3.93c-5.45,0-10.42,1.31-14.9,3.93c-4.49,2.62-7.99,6.25-10.51,10.89
			c-2.52,4.64-3.78,9.83-3.78,15.58c0,5.85,1.26,11.07,3.78,15.66c2.52,4.59,6.03,8.22,10.51,10.89
			C390.11,467.08,395.08,468.42,400.52,468.42z"/>
		<path class="st0" d="M498.71,480.22c-7.06,0-13.39-1.49-18.99-4.46c-5.6-2.97-10.01-7.34-13.24-13.09
			c-3.23-5.75-4.84-12.81-4.84-21.18v-38.58c0-1.82,0.6-3.33,1.82-4.54c1.21-1.21,2.72-1.82,4.54-1.82c1.91,0,3.48,0.61,4.69,1.82
			c1.21,1.21,1.82,2.72,1.82,4.54v38.58c0,6.05,1.13,11.04,3.4,14.98c2.27,3.93,5.37,6.86,9.3,8.77c3.93,1.92,8.37,2.88,13.31,2.88
			c4.74,0,9-0.91,12.78-2.72c3.78-1.82,6.78-4.33,9-7.56c2.22-3.23,3.33-6.86,3.33-10.89h8.78c-0.2,6.35-1.87,12.03-4.99,17.02
			c-3.13,4.99-7.36,8.95-12.71,11.88C511.36,478.76,505.37,480.22,498.71,480.22z M532.14,479.31c-1.92,0-3.48-0.61-4.69-1.82
			c-1.21-1.21-1.82-2.77-1.82-4.69v-69.89c0-1.92,0.61-3.45,1.82-4.61c1.21-1.16,2.77-1.74,4.69-1.74c1.91,0,3.48,0.58,4.69,1.74
			c1.21,1.16,1.82,2.7,1.82,4.61v69.89c0,1.92-0.61,3.48-1.82,4.69C535.62,478.71,534.06,479.31,532.14,479.31z"/>
		<path class="st0" d="M571.93,381.58c-2.42,0-4.49-0.86-6.2-2.57c-1.72-1.71-2.57-3.83-2.57-6.35c0-2.52,0.88-4.61,2.65-6.28
			c1.76-1.66,3.86-2.5,6.28-2.5c2.32,0,4.36,0.83,6.13,2.5c1.76,1.66,2.65,3.76,2.65,6.28c0,2.52-0.88,4.64-2.65,6.35
			C576.44,380.72,574.35,381.58,571.93,381.58z M572.08,479.31c-1.92,0-3.48-0.61-4.69-1.82c-1.21-1.21-1.82-2.77-1.82-4.69v-69.74
			c0-2.02,0.6-3.61,1.82-4.77c1.21-1.16,2.77-1.74,4.69-1.74c1.92,0,3.45,0.58,4.61,1.74c1.16,1.16,1.74,2.75,1.74,4.77v69.74
			c0,1.92-0.58,3.48-1.74,4.69C575.54,478.71,574,479.31,572.08,479.31z"/>
		<path class="st0" d="M623.82,479.31c-4.14,0-7.84-1.13-11.12-3.4c-3.28-2.27-5.82-5.42-7.64-9.46c-1.82-4.03-2.72-8.67-2.72-13.92
			v-85.02c0-1.92,0.58-3.45,1.74-4.61c1.16-1.16,2.7-1.74,4.61-1.74c1.92,0,3.45,0.58,4.61,1.74c1.16,1.16,1.74,2.7,1.74,4.61v85.02
			c0,4.14,0.83,7.51,2.5,10.14c1.66,2.62,3.76,3.93,6.28,3.93h3.78c1.71,0,3.08,0.58,4.08,1.74c1.01,1.16,1.51,2.7,1.51,4.61
			c0,1.92-0.73,3.46-2.19,4.61c-1.46,1.16-3.4,1.74-5.82,1.74H623.82z"/>
		<path class="st0" d="M679.65,480.07c-7.97,0-15.13-1.84-21.48-5.52c-6.35-3.68-11.37-8.7-15.05-15.05
			c-3.68-6.35-5.52-13.56-5.52-21.63c0-7.97,1.76-15.13,5.29-21.48c3.53-6.35,8.32-11.37,14.37-15.05
			c6.05-3.68,12.91-5.52,20.58-5.52c6.45,0,12.33,1.39,17.63,4.16c5.29,2.78,9.66,6.43,13.09,10.97v-43.27c0-2.02,0.6-3.6,1.82-4.77
			c1.21-1.16,2.77-1.74,4.69-1.74c1.92,0,3.48,0.58,4.69,1.74c1.21,1.16,1.82,2.75,1.82,4.77v70.65c-0.2,7.87-2.14,14.95-5.83,21.26
			c-3.68,6.3-8.65,11.3-14.9,14.98C694.57,478.23,687.51,480.07,679.65,480.07z M679.65,468.42c5.55,0,10.54-1.34,14.98-4.01
			c4.44-2.67,7.92-6.3,10.44-10.89c2.52-4.59,3.78-9.81,3.78-15.66c0-5.75-1.26-10.94-3.78-15.58c-2.52-4.64-6-8.27-10.44-10.89
			c-4.44-2.62-9.43-3.93-14.98-3.93c-5.55,0-10.54,1.31-14.98,3.93c-4.44,2.62-7.97,6.25-10.59,10.89
			c-2.62,4.64-3.93,9.83-3.93,15.58c0,5.85,1.31,11.07,3.93,15.66c2.62,4.59,6.15,8.22,10.59,10.89
			C669.11,467.08,674.1,468.42,679.65,468.42z"/>
		<path class="st0" d="M754.83,381.58c-2.42,0-4.49-0.86-6.2-2.57c-1.72-1.71-2.57-3.83-2.57-6.35c0-2.52,0.88-4.61,2.65-6.28
			c1.76-1.66,3.86-2.5,6.28-2.5c2.32,0,4.36,0.83,6.13,2.5c1.76,1.66,2.65,3.76,2.65,6.28c0,2.52-0.88,4.64-2.65,6.35
			C759.35,380.72,757.26,381.58,754.83,381.58z M754.99,479.31c-1.92,0-3.48-0.61-4.69-1.82c-1.21-1.21-1.82-2.77-1.82-4.69v-69.74
			c0-2.02,0.6-3.61,1.82-4.77c1.21-1.16,2.77-1.74,4.69-1.74c1.92,0,3.45,0.58,4.61,1.74c1.16,1.16,1.74,2.75,1.74,4.77v69.74
			c0,1.92-0.58,3.48-1.74,4.69C758.44,478.71,756.9,479.31,754.99,479.31z"/>
		<path class="st0" d="M794.77,479.31c-1.92,0-3.48-0.58-4.69-1.74c-1.21-1.16-1.82-2.7-1.82-4.61v-69.89c0-2.02,0.6-3.61,1.82-4.77
			c1.21-1.16,2.77-1.74,4.69-1.74c1.92,0,3.45,0.58,4.61,1.74c1.16,1.16,1.74,2.75,1.74,4.77v69.89c0,1.92-0.58,3.46-1.74,4.61
			C798.23,478.73,796.69,479.31,794.77,479.31z M858.92,479.31c-1.92,0-3.48-0.61-4.69-1.82c-1.21-1.21-1.82-2.72-1.82-4.54v-38.58
			c0-6.15-1.16-11.17-3.48-15.05c-2.32-3.88-5.42-6.78-9.3-8.7c-3.88-1.92-8.35-2.88-13.39-2.88c-4.64,0-8.88,0.91-12.71,2.72
			c-3.83,1.82-6.86,4.31-9.08,7.49c-2.22,3.18-3.33,6.83-3.33,10.97h-8.62c0.1-6.35,1.74-12.03,4.92-17.02
			c3.18-4.99,7.44-8.95,12.78-11.88c5.34-2.92,11.29-4.39,17.85-4.39c7.16,0,13.54,1.49,19.14,4.46c5.6,2.98,10.01,7.34,13.24,13.09
			c3.23,5.75,4.84,12.81,4.84,21.18v38.58c0,1.82-0.61,3.33-1.82,4.54C862.25,478.71,860.74,479.31,858.92,479.31z"/>
		<path class="st0" d="M924.43,480.07c-7.87,0-14.83-1.79-20.88-5.37c-6.05-3.58-10.79-8.55-14.22-14.9
			c-3.43-6.35-5.14-13.62-5.14-21.79c0-8.27,1.82-15.58,5.45-21.94c3.63-6.35,8.6-11.32,14.9-14.9c6.3-3.58,13.54-5.37,21.71-5.37
			c8.07,0,15.25,1.79,21.56,5.37c6.3,3.58,11.25,8.55,14.83,14.9c3.58,6.35,5.42,13.67,5.52,21.94l-7.56,2.42
			c0,7.67-1.57,14.5-4.69,20.5c-3.13,6-7.41,10.69-12.86,14.07C937.59,478.38,931.39,480.07,924.43,480.07z M926.24,512.59
			c-7.67,0-14.55-1.46-20.65-4.39c-6.1-2.93-11.22-7.01-15.36-12.25c-1.11-1.41-1.57-2.9-1.36-4.46c0.2-1.57,1.01-2.8,2.42-3.71
			c1.51-1.01,3.13-1.36,4.84-1.06c1.71,0.3,3.08,1.16,4.08,2.57c2.82,3.53,6.45,6.35,10.89,8.47c4.44,2.12,9.58,3.18,15.43,3.18
			c5.34,0,10.21-1.29,14.6-3.86c4.39-2.57,7.87-6.28,10.44-11.12c2.57-4.84,3.86-10.54,3.86-17.1v-22.54l4.69-10.29l8.02,1.97v31.47
			c0,8.07-1.82,15.36-5.45,21.86c-3.63,6.5-8.57,11.67-14.83,15.51C941.62,510.68,934.41,512.59,926.24,512.59z M926.24,468.42
			c5.65,0,10.69-1.29,15.13-3.86c4.44-2.57,7.89-6.15,10.36-10.74c2.47-4.59,3.71-9.86,3.71-15.81c0-5.95-1.24-11.25-3.71-15.88
			c-2.47-4.64-5.93-8.25-10.36-10.82c-4.44-2.57-9.48-3.86-15.13-3.86c-5.75,0-10.84,1.29-15.28,3.86
			c-4.44,2.57-7.92,6.18-10.44,10.82c-2.52,4.64-3.78,9.93-3.78,15.88c0,5.95,1.26,11.22,3.78,15.81c2.52,4.59,6,8.17,10.44,10.74
			C915.4,467.13,920.49,468.42,926.24,468.42z"/>
		<path class="st0" d="M365.27,611.69c-1.92,0-3.48-0.58-4.69-1.74c-1.21-1.16-1.82-2.7-1.82-4.61v-69.89c0-2.02,0.61-3.6,1.82-4.77
			c1.21-1.16,2.77-1.74,4.69-1.74c1.92,0,3.45,0.58,4.61,1.74c1.16,1.16,1.74,2.75,1.74,4.77v69.89c0,1.92-0.58,3.46-1.74,4.61
			C368.73,611.11,367.19,611.69,365.27,611.69z M429.42,611.69c-1.92,0-3.48-0.61-4.69-1.82c-1.21-1.21-1.82-2.72-1.82-4.54v-38.58
			c0-6.15-1.16-11.17-3.48-15.05c-2.32-3.88-5.42-6.78-9.3-8.7c-3.88-1.92-8.35-2.87-13.39-2.87c-4.64,0-8.88,0.91-12.71,2.72
			c-3.83,1.82-6.86,4.31-9.08,7.49c-2.22,3.18-3.33,6.83-3.33,10.97h-8.62c0.1-6.35,1.74-12.03,4.92-17.02
			c3.18-4.99,7.44-8.95,12.78-11.88c5.34-2.92,11.29-4.39,17.85-4.39c7.16,0,13.54,1.49,19.14,4.46c5.6,2.98,10.01,7.34,13.24,13.09
			c3.23,5.75,4.84,12.81,4.84,21.18v38.58c0,1.82-0.6,3.33-1.82,4.54C432.75,611.08,431.24,611.69,429.42,611.69z"/>
		<path class="st0" d="M496.74,612.45c-8.17,0-15.41-1.82-21.71-5.45c-6.3-3.63-11.27-8.62-14.9-14.98
			c-3.63-6.35-5.45-13.56-5.45-21.63c0-8.17,1.82-15.43,5.45-21.79s8.6-11.35,14.9-14.98c6.3-3.63,13.54-5.45,21.71-5.45
			c8.07,0,15.23,1.82,21.48,5.45c6.25,3.63,11.2,8.62,14.83,14.98s5.5,13.62,5.6,21.79c0,8.07-1.81,15.28-5.45,21.63
			c-3.63,6.35-8.6,11.35-14.9,14.98C512,610.63,504.81,612.45,496.74,612.45z M496.74,600.8c5.65,0,10.69-1.31,15.13-3.93
			c4.44-2.62,7.89-6.23,10.36-10.82c2.47-4.59,3.71-9.81,3.71-15.66c0-5.85-1.24-11.09-3.71-15.73c-2.47-4.64-5.93-8.27-10.36-10.89
			c-4.44-2.62-9.48-3.93-15.13-3.93c-5.65,0-10.69,1.31-15.13,3.93c-4.44,2.62-7.94,6.25-10.51,10.89
			c-2.57,4.64-3.86,9.89-3.86,15.73c0,5.85,1.29,11.07,3.86,15.66c2.57,4.59,6.08,8.2,10.51,10.82
			C486.05,599.49,491.09,600.8,496.74,600.8z"/>
		<path class="st0" d="M565.42,611.69c-1.92,0-3.48-0.58-4.69-1.74c-1.21-1.16-1.82-2.7-1.82-4.61v-69.89c0-1.92,0.6-3.48,1.82-4.69
			c1.21-1.21,2.77-1.82,4.69-1.82c1.92,0,3.45,0.6,4.61,1.82c1.16,1.21,1.74,2.77,1.74,4.69v69.89c0,1.92-0.58,3.46-1.74,4.61
			C568.88,611.11,567.34,611.69,565.42,611.69z M617.62,611.69c-1.82,0-3.35-0.58-4.61-1.74c-1.26-1.16-1.89-2.7-1.89-4.61v-43.42
			c0-6.96-1.77-12.33-5.3-16.11c-3.53-3.78-8.07-5.67-13.62-5.67c-5.95,0-10.84,1.97-14.67,5.9c-3.83,3.93-5.75,9.03-5.75,15.28
			h-8.62c0.1-6.55,1.49-12.33,4.16-17.32c2.67-4.99,6.33-8.9,10.97-11.72c4.64-2.82,9.88-4.24,15.73-4.24
			c5.85,0,11.04,1.36,15.58,4.08c4.54,2.72,8.09,6.63,10.67,11.72c2.57,5.09,3.86,11.12,3.86,18.08v43.42
			c0,1.92-0.61,3.46-1.82,4.61C621.1,611.11,619.53,611.69,617.62,611.69z M669.66,611.69c-1.92,0-3.48-0.58-4.69-1.74
			c-1.21-1.16-1.82-2.7-1.82-4.61v-43.42c0-6.96-1.77-12.33-5.29-16.11c-3.53-3.78-8.07-5.67-13.62-5.67
			c-5.95,0-10.82,1.99-14.6,5.98c-3.78,3.99-5.62,9.25-5.52,15.81h-11.2c0.1-6.76,1.56-12.68,4.39-17.78
			c2.82-5.09,6.73-9.05,11.72-11.88c4.99-2.82,10.67-4.24,17.02-4.24c5.85,0,11.04,1.36,15.58,4.08c4.54,2.72,8.07,6.63,10.59,11.72
			c2.52,5.09,3.78,11.12,3.78,18.08v43.42c0,1.92-0.58,3.46-1.74,4.61C673.12,611.11,671.58,611.69,669.66,611.69z"/>
		<path class="st0" d="M707.78,513.96c-2.42,0-4.49-0.86-6.2-2.57c-1.72-1.71-2.57-3.83-2.57-6.35c0-2.52,0.88-4.61,2.65-6.28
			c1.76-1.66,3.86-2.5,6.28-2.5c2.32,0,4.36,0.83,6.13,2.5c1.76,1.66,2.65,3.76,2.65,6.28c0,2.52-0.88,4.64-2.65,6.35
			C712.3,513.1,710.21,513.96,707.78,513.96z M707.94,611.69c-1.92,0-3.48-0.61-4.69-1.82c-1.21-1.21-1.82-2.77-1.82-4.69v-69.74
			c0-2.02,0.6-3.6,1.82-4.77c1.21-1.16,2.77-1.74,4.69-1.74c1.92,0,3.45,0.58,4.61,1.74c1.16,1.16,1.74,2.75,1.74,4.77v69.74
			c0,1.92-0.58,3.48-1.74,4.69C711.39,611.08,709.85,611.69,707.94,611.69z"/>
	</g>
</g>
</svg>
